# xmcd
#
# Track frame offsets:
# 150
# 19933
# 35418
# 60128
# 72855
# 86914
# 102673
# 116360
# 130400
#
# Disc length: 2074 seconds
#
# Revision: 3
# Processed by: cddbd v1.5.2PL0 Copyright (c) Steve Scherf et al.
# Submitted via: inCDius 2.0b9
#
DISCID=76081809
DTITLE=J.J. Cale - The Ultimate Collection - Disc 3 (Bonus CD)
DYEAR=2004
DGENRE=Blues
TTITLE0=Midnight In Memphis
TTITLE1=Woke Up This Morning
TTITLE2=Durango
TTITLE3=Things Ain't Simple
TTITLE4=Wish I Had Me A Dollar [Live]
TTITLE5=Santa Cruz
TTITLE6=After Midnight [Live]
TTITLE7=Cocaine [Live]
TTITLE8=Call Me The Breeze [Live]
EXTD=Blues Rock\nYEAR: 2004 Remaster\nBONUS: Bonus CD\nCOUNTRY: U.S.\n
EXTT0=
EXTT1=
EXTT2=
EXTT3=
EXTT4=
EXTT5=
EXTT6=
EXTT7=
EXTT8=
PLAYORDER=
